<svg xmlns="http://www.w3.org/2000/svg" viewBox="0 0 1600 480" role="img" aria-labelledby="title desc">
  <title id="title">Jia Huang, agent architecture and pattern language</title>
  <desc id="desc">A restrained profile banner with a six by seven agent design-pattern coordinate field.</desc>
  <rect width="1600" height="480" fill="#f8fafc"/>
  <rect x="22" y="22" width="1556" height="436" rx="8" fill="none" stroke="#cbd5e1" stroke-width="2"/>
  <rect x="70" y="72" width="6" height="336" fill="#b8842b"/>

  <text x="112" y="116" fill="#0f3a5f" font-family="Arial, 'Noto Sans CJK SC', sans-serif" font-size="34" font-weight="700">JIA HUANG / 黄佳</text>
  <text x="112" y="210" fill="#0f172a" font-family="Georgia, 'Times New Roman', serif" font-size="66">Agent Architecture</text>
  <text x="112" y="274" fill="#334155" font-family="Arial, Helvetica, sans-serif" font-size="34">Pattern Language · Production Systems</text>
  <line x1="112" y1="318" x2="812" y2="318" stroke="#cbd5e1" stroke-width="2"/>
  <text x="112" y="365" fill="#475569" font-family="Arial, Helvetica, sans-serif" font-size="25">A*STAR Singapore · Manning author · ADPS co-founder</text>

  <g transform="translate(1052 74)">
    <text x="0" y="0" fill="#0f3a5f" font-family="Arial, Helvetica, sans-serif" font-size="19" font-weight="700">6 EXECUTION TOPOLOGIES</text>
    <text x="-52" y="166" transform="rotate(-90 -52 166)" fill="#64748b" font-family="Arial, Helvetica, sans-serif" font-size="19">7 COGNITIVE FUNCTIONS</text>
    <g transform="translate(0 32)" fill="#94a3b8" opacity="0.7">
      <circle cx="0" cy="0" r="6"/><circle cx="64" cy="0" r="6"/><circle cx="128" cy="0" r="6"/><circle cx="192" cy="0" r="6"/><circle cx="256" cy="0" r="6"/><circle cx="320" cy="0" r="6"/>
      <circle cx="0" cy="50" r="6"/><circle cx="64" cy="50" r="6"/><circle cx="128" cy="50" r="6"/><circle cx="192" cy="50" r="6"/><circle cx="256" cy="50" r="6"/><circle cx="320" cy="50" r="6"/>
      <circle cx="0" cy="100" r="6"/><circle cx="64" cy="100" r="6"/><circle cx="128" cy="100" r="6"/><circle cx="192" cy="100" r="6"/><circle cx="256" cy="100" r="6"/><circle cx="320" cy="100" r="6"/>
      <circle cx="0" cy="150" r="6"/><circle cx="64" cy="150" r="6"/><circle cx="128" cy="150" r="6"/><circle cx="192" cy="150" r="6"/><circle cx="256" cy="150" r="6"/><circle cx="320" cy="150" r="6"/>
      <circle cx="0" cy="200" r="6"/><circle cx="64" cy="200" r="6"/><circle cx="128" cy="200" r="6"/><circle cx="192" cy="200" r="6"/><circle cx="256" cy="200" r="6"/><circle cx="320" cy="200" r="6"/>
      <circle cx="0" cy="250" r="6"/><circle cx="64" cy="250" r="6"/><circle cx="128" cy="250" r="6"/><circle cx="192" cy="250" r="6"/><circle cx="256" cy="250" r="6"/><circle cx="320" cy="250" r="6"/>
      <circle cx="0" cy="300" r="6"/><circle cx="64" cy="300" r="6"/><circle cx="128" cy="300" r="6"/><circle cx="192" cy="300" r="6"/><circle cx="256" cy="300" r="6"/><circle cx="320" cy="300" r="6"/>
    </g>
    <path d="M0 282h64v-50h64v50h64V182h64v-50h64" fill="none" stroke="#b8842b" stroke-width="8" stroke-linecap="square" stroke-linejoin="miter"/>
    <rect x="-8" y="274" width="16" height="16" fill="#0f3a5f"/>
    <rect x="312" y="124" width="16" height="16" fill="#0f3a5f"/>
  </g>
</svg>
